<?xml version="1.0" encoding="utf-8"?>
<svg xmlns="http://www.w3.org/2000/svg" xmlns:xlink="http://www.w3.org/1999/xlink" width="672" height="480" viewBox="0 0 2688 1920">
<defs>
  <clipPath id="clip620">
    <rect x="0" y="0" width="2688" height="1920"/>
  </clipPath>
</defs>
<path clip-path="url(#clip620)" d="M0 1920 L2688 1920 L2688 0 L0 0  Z" fill="#ffffff" fill-rule="evenodd" fill-opacity="1"/>
<defs>
  <clipPath id="clip621">
    <rect x="537" y="0" width="1883" height="1883"/>
  </clipPath>
</defs>
<path clip-path="url(#clip620)" d="M141.839 1800.78 L2640.76 1800.78 L2640.76 47.2441 L141.839 47.2441  Z" fill="#ffffff" fill-rule="evenodd" fill-opacity="1"/>
<defs>
  <clipPath id="clip622">
    <rect x="141" y="47" width="2500" height="1755"/>
  </clipPath>
</defs>
<polyline clip-path="url(#clip622)" style="stroke:#000000; stroke-linecap:round; stroke-linejoin:round; stroke-width:2; stroke-opacity:0.1; fill:none" points="368.505,1800.78 368.505,47.2441 "/>
<polyline clip-path="url(#clip622)" style="stroke:#000000; stroke-linecap:round; stroke-linejoin:round; stroke-width:2; stroke-opacity:0.1; fill:none" points="740.166,1800.78 740.166,47.2441 "/>
<polyline clip-path="url(#clip622)" style="stroke:#000000; stroke-linecap:round; stroke-linejoin:round; stroke-width:2; stroke-opacity:0.1; fill:none" points="1111.83,1800.78 1111.83,47.2441 "/>
<polyline clip-path="url(#clip622)" style="stroke:#000000; stroke-linecap:round; stroke-linejoin:round; stroke-width:2; stroke-opacity:0.1; fill:none" points="1483.49,1800.78 1483.49,47.2441 "/>
<polyline clip-path="url(#clip622)" style="stroke:#000000; stroke-linecap:round; stroke-linejoin:round; stroke-width:2; stroke-opacity:0.1; fill:none" points="1855.15,1800.78 1855.15,47.2441 "/>
<polyline clip-path="url(#clip622)" style="stroke:#000000; stroke-linecap:round; stroke-linejoin:round; stroke-width:2; stroke-opacity:0.1; fill:none" points="2226.81,1800.78 2226.81,47.2441 "/>
<polyline clip-path="url(#clip622)" style="stroke:#000000; stroke-linecap:round; stroke-linejoin:round; stroke-width:2; stroke-opacity:0.1; fill:none" points="2598.47,1800.78 2598.47,47.2441 "/>
<polyline clip-path="url(#clip620)" style="stroke:#000000; stroke-linecap:round; stroke-linejoin:round; stroke-width:4; stroke-opacity:1; fill:none" points="141.839,1800.78 2640.76,1800.78 "/>
<polyline clip-path="url(#clip620)" style="stroke:#000000; stroke-linecap:round; stroke-linejoin:round; stroke-width:4; stroke-opacity:1; fill:none" points="368.505,1800.78 368.505,1781.88 "/>
<polyline clip-path="url(#clip620)" style="stroke:#000000; stroke-linecap:round; stroke-linejoin:round; stroke-width:4; stroke-opacity:1; fill:none" points="740.166,1800.78 740.166,1781.88 "/>
<polyline clip-path="url(#clip620)" style="stroke:#000000; stroke-linecap:round; stroke-linejoin:round; stroke-width:4; stroke-opacity:1; fill:none" points="1111.83,1800.78 1111.83,1781.88 "/>
<polyline clip-path="url(#clip620)" style="stroke:#000000; stroke-linecap:round; stroke-linejoin:round; stroke-width:4; stroke-opacity:1; fill:none" points="1483.49,1800.78 1483.49,1781.88 "/>
<polyline clip-path="url(#clip620)" style="stroke:#000000; stroke-linecap:round; stroke-linejoin:round; stroke-width:4; stroke-opacity:1; fill:none" points="1855.15,1800.78 1855.15,1781.88 "/>
<polyline clip-path="url(#clip620)" style="stroke:#000000; stroke-linecap:round; stroke-linejoin:round; stroke-width:4; stroke-opacity:1; fill:none" points="2226.81,1800.78 2226.81,1781.88 "/>
<polyline clip-path="url(#clip620)" style="stroke:#000000; stroke-linecap:round; stroke-linejoin:round; stroke-width:4; stroke-opacity:1; fill:none" points="2598.47,1800.78 2598.47,1781.88 "/>
<path clip-path="url(#clip620)" d="M338.447 1848.65 L368.123 1848.65 L368.123 1852.59 L338.447 1852.59 L338.447 1848.65 Z" fill="#000000" fill-rule="nonzero" fill-opacity="1" /><path clip-path="url(#clip620)" d="M382.243 1861.55 L398.563 1861.55 L398.563 1865.48 L376.618 1865.48 L376.618 1861.55 Q379.28 1858.79 383.864 1854.16 Q388.47 1849.51 389.651 1848.17 Q391.896 1845.65 392.776 1843.91 Q393.678 1842.15 393.678 1840.46 Q393.678 1837.71 391.734 1835.97 Q389.813 1834.23 386.711 1834.23 Q384.512 1834.23 382.058 1835 Q379.627 1835.76 376.85 1837.31 L376.85 1832.59 Q379.674 1831.46 382.127 1830.88 Q384.581 1830.3 386.618 1830.3 Q391.989 1830.3 395.183 1832.98 Q398.377 1835.67 398.377 1840.16 Q398.377 1842.29 397.567 1844.21 Q396.78 1846.11 394.674 1848.7 Q394.095 1849.37 390.993 1852.59 Q387.891 1855.78 382.243 1861.55 Z" fill="#000000" fill-rule="nonzero" fill-opacity="1" /><path clip-path="url(#clip620)" d="M709.923 1848.65 L739.598 1848.65 L739.598 1852.59 L709.923 1852.59 L709.923 1848.65 Z" fill="#000000" fill-rule="nonzero" fill-opacity="1" /><path clip-path="url(#clip620)" d="M750.501 1861.55 L758.14 1861.55 L758.14 1835.18 L749.83 1836.85 L749.83 1832.59 L758.094 1830.92 L762.77 1830.92 L762.77 1861.55 L770.408 1861.55 L770.408 1865.48 L750.501 1865.48 L750.501 1861.55 Z" fill="#000000" fill-rule="nonzero" fill-opacity="1" /><path clip-path="url(#clip620)" d="M1111.83 1834 Q1108.22 1834 1106.39 1837.57 Q1104.58 1841.11 1104.58 1848.24 Q1104.58 1855.34 1106.39 1858.91 Q1108.22 1862.45 1111.83 1862.45 Q1115.46 1862.45 1117.27 1858.91 Q1119.09 1855.34 1119.09 1848.24 Q1119.09 1841.11 1117.27 1837.57 Q1115.46 1834 1111.83 1834 M1111.83 1830.3 Q1117.64 1830.3 1120.69 1834.9 Q1123.77 1839.49 1123.77 1848.24 Q1123.77 1856.96 1120.69 1861.57 Q1117.64 1866.15 1111.83 1866.15 Q1106.02 1866.15 1102.94 1861.57 Q1099.88 1856.96 1099.88 1848.24 Q1099.88 1839.49 1102.94 1834.9 Q1106.02 1830.3 1111.83 1830.3 Z" fill="#000000" fill-rule="nonzero" fill-opacity="1" /><path clip-path="url(#clip620)" d="M1473.87 1861.55 L1481.51 1861.55 L1481.51 1835.18 L1473.2 1836.85 L1473.2 1832.59 L1481.46 1830.92 L1486.14 1830.92 L1486.14 1861.55 L1493.78 1861.55 L1493.78 1865.48 L1473.87 1865.48 L1473.87 1861.55 Z" fill="#000000" fill-rule="nonzero" fill-opacity="1" /><path clip-path="url(#clip620)" d="M1849.8 1861.55 L1866.12 1861.55 L1866.12 1865.48 L1844.18 1865.48 L1844.18 1861.55 Q1846.84 1858.79 1851.42 1854.16 Q1856.03 1849.51 1857.21 1848.17 Q1859.45 1845.65 1860.33 1843.91 Q1861.24 1842.15 1861.24 1840.46 Q1861.24 1837.71 1859.29 1835.97 Q1857.37 1834.23 1854.27 1834.23 Q1852.07 1834.23 1849.62 1835 Q1847.18 1835.76 1844.41 1837.31 L1844.41 1832.59 Q1847.23 1831.46 1849.68 1830.88 Q1852.14 1830.3 1854.18 1830.3 Q1859.55 1830.3 1862.74 1832.98 Q1865.93 1835.67 1865.93 1840.16 Q1865.93 1842.29 1865.12 1844.21 Q1864.34 1846.11 1862.23 1848.7 Q1861.65 1849.37 1858.55 1852.59 Q1855.45 1855.78 1849.8 1861.55 Z" fill="#000000" fill-rule="nonzero" fill-opacity="1" /><path clip-path="url(#clip620)" d="M2231.06 1846.85 Q2234.41 1847.57 2236.29 1849.84 Q2238.19 1852.1 2238.19 1855.44 Q2238.19 1860.55 2234.67 1863.35 Q2231.15 1866.15 2224.67 1866.15 Q2222.49 1866.15 2220.18 1865.71 Q2217.88 1865.3 2215.43 1864.44 L2215.43 1859.93 Q2217.38 1861.06 2219.69 1861.64 Q2222.01 1862.22 2224.53 1862.22 Q2228.93 1862.22 2231.22 1860.48 Q2233.53 1858.75 2233.53 1855.44 Q2233.53 1852.38 2231.38 1850.67 Q2229.25 1848.93 2225.43 1848.93 L2221.4 1848.93 L2221.4 1845.09 L2225.62 1845.09 Q2229.07 1845.09 2230.89 1843.72 Q2232.72 1842.34 2232.72 1839.74 Q2232.72 1837.08 2230.82 1835.67 Q2228.95 1834.23 2225.43 1834.23 Q2223.51 1834.23 2221.31 1834.65 Q2219.11 1835.07 2216.47 1835.95 L2216.47 1831.78 Q2219.13 1831.04 2221.45 1830.67 Q2223.79 1830.3 2225.85 1830.3 Q2231.17 1830.3 2234.27 1832.73 Q2237.38 1835.14 2237.38 1839.26 Q2237.38 1842.13 2235.73 1844.12 Q2234.09 1846.09 2231.06 1846.85 Z" fill="#000000" fill-rule="nonzero" fill-opacity="1" /><path clip-path="url(#clip620)" d="M2601.48 1835 L2589.67 1853.45 L2601.48 1853.45 L2601.48 1835 M2600.25 1830.92 L2606.13 1830.92 L2606.13 1853.45 L2611.06 1853.45 L2611.06 1857.34 L2606.13 1857.34 L2606.13 1865.48 L2601.48 1865.48 L2601.48 1857.34 L2585.88 1857.34 L2585.88 1852.82 L2600.25 1830.92 Z" fill="#000000" fill-rule="nonzero" fill-opacity="1" /><polyline clip-path="url(#clip622)" style="stroke:#000000; stroke-linecap:round; stroke-linejoin:round; stroke-width:2; stroke-opacity:0.1; fill:none" points="141.839,1751.15 2640.76,1751.15 "/>
<polyline clip-path="url(#clip622)" style="stroke:#000000; stroke-linecap:round; stroke-linejoin:round; stroke-width:2; stroke-opacity:0.1; fill:none" points="141.839,1213.83 2640.76,1213.83 "/>
<polyline clip-path="url(#clip622)" style="stroke:#000000; stroke-linecap:round; stroke-linejoin:round; stroke-width:2; stroke-opacity:0.1; fill:none" points="141.839,676.508 2640.76,676.508 "/>
<polyline clip-path="url(#clip622)" style="stroke:#000000; stroke-linecap:round; stroke-linejoin:round; stroke-width:2; stroke-opacity:0.1; fill:none" points="141.839,139.186 2640.76,139.186 "/>
<polyline clip-path="url(#clip620)" style="stroke:#000000; stroke-linecap:round; stroke-linejoin:round; stroke-width:4; stroke-opacity:1; fill:none" points="141.839,1800.78 141.839,47.2441 "/>
<polyline clip-path="url(#clip620)" style="stroke:#000000; stroke-linecap:round; stroke-linejoin:round; stroke-width:4; stroke-opacity:1; fill:none" points="141.839,1751.15 160.737,1751.15 "/>
<polyline clip-path="url(#clip620)" style="stroke:#000000; stroke-linecap:round; stroke-linejoin:round; stroke-width:4; stroke-opacity:1; fill:none" points="141.839,1213.83 160.737,1213.83 "/>
<polyline clip-path="url(#clip620)" style="stroke:#000000; stroke-linecap:round; stroke-linejoin:round; stroke-width:4; stroke-opacity:1; fill:none" points="141.839,676.508 160.737,676.508 "/>
<polyline clip-path="url(#clip620)" style="stroke:#000000; stroke-linecap:round; stroke-linejoin:round; stroke-width:4; stroke-opacity:1; fill:none" points="141.839,139.186 160.737,139.186 "/>
<path clip-path="url(#clip620)" d="M89.5751 1736.95 Q85.964 1736.95 84.1353 1740.51 Q82.3297 1744.06 82.3297 1751.19 Q82.3297 1758.29 84.1353 1761.86 Q85.964 1765.4 89.5751 1765.4 Q93.2093 1765.4 95.0148 1761.86 Q96.8435 1758.29 96.8435 1751.19 Q96.8435 1744.06 95.0148 1740.51 Q93.2093 1736.95 89.5751 1736.95 M89.5751 1733.25 Q95.3852 1733.25 98.4408 1737.85 Q101.519 1742.44 101.519 1751.19 Q101.519 1759.91 98.4408 1764.52 Q95.3852 1769.1 89.5751 1769.1 Q83.7649 1769.1 80.6862 1764.52 Q77.6307 1759.91 77.6307 1751.19 Q77.6307 1742.44 80.6862 1737.85 Q83.7649 1733.25 89.5751 1733.25 Z" fill="#000000" fill-rule="nonzero" fill-opacity="1" /><path clip-path="url(#clip620)" d="M80.6168 1196.55 L98.9732 1196.55 L98.9732 1200.48 L84.8992 1200.48 L84.8992 1208.96 Q85.9177 1208.61 86.9362 1208.45 Q87.9547 1208.26 88.9732 1208.26 Q94.7602 1208.26 98.1398 1211.43 Q101.519 1214.6 101.519 1220.02 Q101.519 1225.6 98.0472 1228.7 Q94.575 1231.78 88.2556 1231.78 Q86.0797 1231.78 83.8112 1231.41 Q81.5658 1231.04 79.1584 1230.3 L79.1584 1225.6 Q81.2418 1226.73 83.464 1227.29 Q85.6862 1227.85 88.163 1227.85 Q92.1676 1227.85 94.5056 1225.74 Q96.8435 1223.63 96.8435 1220.02 Q96.8435 1216.41 94.5056 1214.3 Q92.1676 1212.2 88.163 1212.2 Q86.288 1212.2 84.4131 1212.61 Q82.5612 1213.03 80.6168 1213.91 L80.6168 1196.55 Z" fill="#000000" fill-rule="nonzero" fill-opacity="1" /><path clip-path="url(#clip620)" d="M50.2234 689.853 L57.8623 689.853 L57.8623 663.487 L49.5521 665.154 L49.5521 660.894 L57.816 659.228 L62.4919 659.228 L62.4919 689.853 L70.1307 689.853 L70.1307 693.788 L50.2234 693.788 L50.2234 689.853 Z" fill="#000000" fill-rule="nonzero" fill-opacity="1" /><path clip-path="url(#clip620)" d="M89.5751 662.306 Q85.964 662.306 84.1353 665.871 Q82.3297 669.413 82.3297 676.542 Q82.3297 683.649 84.1353 687.214 Q85.964 690.755 89.5751 690.755 Q93.2093 690.755 95.0148 687.214 Q96.8435 683.649 96.8435 676.542 Q96.8435 669.413 95.0148 665.871 Q93.2093 662.306 89.5751 662.306 M89.5751 658.603 Q95.3852 658.603 98.4408 663.209 Q101.519 667.792 101.519 676.542 Q101.519 685.269 98.4408 689.876 Q95.3852 694.459 89.5751 694.459 Q83.7649 694.459 80.6862 689.876 Q77.6307 685.269 77.6307 676.542 Q77.6307 667.792 80.6862 663.209 Q83.7649 658.603 89.5751 658.603 Z" fill="#000000" fill-rule="nonzero" fill-opacity="1" /><path clip-path="url(#clip620)" d="M51.2188 152.531 L58.8576 152.531 L58.8576 126.165 L50.5475 127.832 L50.5475 123.573 L58.8113 121.906 L63.4872 121.906 L63.4872 152.531 L71.1261 152.531 L71.1261 156.466 L51.2188 156.466 L51.2188 152.531 Z" fill="#000000" fill-rule="nonzero" fill-opacity="1" /><path clip-path="url(#clip620)" d="M80.6168 121.906 L98.9732 121.906 L98.9732 125.841 L84.8992 125.841 L84.8992 134.313 Q85.9177 133.966 86.9362 133.804 Q87.9547 133.619 88.9732 133.619 Q94.7602 133.619 98.1398 136.79 Q101.519 139.961 101.519 145.378 Q101.519 150.957 98.0472 154.059 Q94.575 157.137 88.2556 157.137 Q86.0797 157.137 83.8112 156.767 Q81.5658 156.396 79.1584 155.656 L79.1584 150.957 Q81.2418 152.091 83.464 152.646 Q85.6862 153.202 88.163 153.202 Q92.1676 153.202 94.5056 151.096 Q96.8435 148.989 96.8435 145.378 Q96.8435 141.767 94.5056 139.66 Q92.1676 137.554 88.163 137.554 Q86.288 137.554 84.4131 137.971 Q82.5612 138.387 80.6168 139.267 L80.6168 121.906 Z" fill="#000000" fill-rule="nonzero" fill-opacity="1" /><polyline clip-path="url(#clip622)" style="stroke:#009af9; stroke-linecap:round; stroke-linejoin:round; stroke-width:4; stroke-opacity:1; fill:none" points="1940.9,1216.39 2570.03,96.8724 669.116,1598.67 984.882,1738.61 1249.98,1736.3 1012.84,1743.53 1800.75,1381.91 1473.67,1649.29 1451.05,1661.63 1168.4,1748.66 1430.33,1672.23 1062.35,1749.25 1636.52,1536.97 1320.82,1717.17 852.108,1698.67 587.855,1537.56 1066.09,1749.52 1358.47,1703.82 736.879,1641.78 1898.17,1270.09 643.507,1580.52 778.165,1664.54 719.75,1631.56 1709.06,1473.66 1386.96,1692.26 1406.49,1683.6 1106.01,1751.13 709.637,1625.31 691.548,1613.73 518.66,1477.42 1422.91,1675.86 1461.72,1655.91 810.174,1680.36 1493.34,1637.91 710.718,1625.98 619.335,1562.45 1034.23,1746.47 1014.26,1743.75 812.64,1681.51 1018.64,1744.4 1751.72,1432.59 904.469,1717.7 1506.09,1630.22 2239.66,761.547 987.322,1739.09 820.311,1685.04 1537.45,1610.22 477.046,1437.67 1385.2,1693.01 1185.82,1746.89 1243.42,1737.68 1378.68,1695.75 945.833,1729.71 1024.14,1745.17 1229.27,1740.42 1113.69,1751.15 657.679,1590.69 1015.36,1743.91 1085,1750.59 1112.55,1751.15 1252.23,1735.81 1733.07,1450.89 981.223,1737.88 731.009,1638.33 1359.72,1703.34 1196.37,1745.59 575.574,1527.43 904.033,1717.56 1114.72,1751.14 909.917,1719.43 1382.01,1694.36 755.204,1652.21 1390.74,1690.63 1040.67,1747.21 1844.16,1333.9 1403.44,1684.99 635.735,1574.81 1286.2,1727.5 770.393,1660.46 1169.58,1748.56 892.935,1713.88 886.955,1711.81 847.387,1696.75 599.249,1546.75 1395.69,1688.46 510.78,1470.1 652.011,1586.66 680.145,1606.17 1366,1700.89 1068,1749.66 507.804,1467.31 212.563,1122.02 692.095,1614.09 859.855,1701.76 1147.24,1750.18 1422.34,1676.14 1226.85,1740.86 855.124,1699.89 955.156,1732.06 464.382,1425.03 "/>
<circle clip-path="url(#clip622)" cx="1940.9" cy="1216.39" r="14.4" fill="#e26f46" fill-rule="evenodd" fill-opacity="1" stroke="#000000" stroke-opacity="1" stroke-width="3.84"/>
<circle clip-path="url(#clip622)" cx="2570.03" cy="96.8724" r="14.4" fill="#e26f46" fill-rule="evenodd" fill-opacity="1" stroke="#000000" stroke-opacity="1" stroke-width="3.84"/>
<circle clip-path="url(#clip622)" cx="669.116" cy="1598.67" r="14.4" fill="#e26f46" fill-rule="evenodd" fill-opacity="1" stroke="#000000" stroke-opacity="1" stroke-width="3.84"/>
<circle clip-path="url(#clip622)" cx="984.882" cy="1738.61" r="14.4" fill="#e26f46" fill-rule="evenodd" fill-opacity="1" stroke="#000000" stroke-opacity="1" stroke-width="3.84"/>
<circle clip-path="url(#clip622)" cx="1249.98" cy="1736.3" r="14.4" fill="#e26f46" fill-rule="evenodd" fill-opacity="1" stroke="#000000" stroke-opacity="1" stroke-width="3.84"/>
<circle clip-path="url(#clip622)" cx="1012.84" cy="1743.53" r="14.4" fill="#e26f46" fill-rule="evenodd" fill-opacity="1" stroke="#000000" stroke-opacity="1" stroke-width="3.84"/>
<circle clip-path="url(#clip622)" cx="1800.75" cy="1381.91" r="14.4" fill="#e26f46" fill-rule="evenodd" fill-opacity="1" stroke="#000000" stroke-opacity="1" stroke-width="3.84"/>
<circle clip-path="url(#clip622)" cx="1473.67" cy="1649.29" r="14.4" fill="#e26f46" fill-rule="evenodd" fill-opacity="1" stroke="#000000" stroke-opacity="1" stroke-width="3.84"/>
<circle clip-path="url(#clip622)" cx="1451.05" cy="1661.63" r="14.4" fill="#e26f46" fill-rule="evenodd" fill-opacity="1" stroke="#000000" stroke-opacity="1" stroke-width="3.84"/>
<circle clip-path="url(#clip622)" cx="1168.4" cy="1748.66" r="14.4" fill="#e26f46" fill-rule="evenodd" fill-opacity="1" stroke="#000000" stroke-opacity="1" stroke-width="3.84"/>
<circle clip-path="url(#clip622)" cx="1430.33" cy="1672.23" r="14.4" fill="#e26f46" fill-rule="evenodd" fill-opacity="1" stroke="#000000" stroke-opacity="1" stroke-width="3.84"/>
<circle clip-path="url(#clip622)" cx="1062.35" cy="1749.25" r="14.4" fill="#e26f46" fill-rule="evenodd" fill-opacity="1" stroke="#000000" stroke-opacity="1" stroke-width="3.84"/>
<circle clip-path="url(#clip622)" cx="1636.52" cy="1536.97" r="14.4" fill="#e26f46" fill-rule="evenodd" fill-opacity="1" stroke="#000000" stroke-opacity="1" stroke-width="3.84"/>
<circle clip-path="url(#clip622)" cx="1320.82" cy="1717.17" r="14.4" fill="#e26f46" fill-rule="evenodd" fill-opacity="1" stroke="#000000" stroke-opacity="1" stroke-width="3.84"/>
<circle clip-path="url(#clip622)" cx="852.108" cy="1698.67" r="14.4" fill="#e26f46" fill-rule="evenodd" fill-opacity="1" stroke="#000000" stroke-opacity="1" stroke-width="3.84"/>
<circle clip-path="url(#clip622)" cx="587.855" cy="1537.56" r="14.4" fill="#e26f46" fill-rule="evenodd" fill-opacity="1" stroke="#000000" stroke-opacity="1" stroke-width="3.84"/>
<circle clip-path="url(#clip622)" cx="1066.09" cy="1749.52" r="14.4" fill="#e26f46" fill-rule="evenodd" fill-opacity="1" stroke="#000000" stroke-opacity="1" stroke-width="3.84"/>
<circle clip-path="url(#clip622)" cx="1358.47" cy="1703.82" r="14.4" fill="#e26f46" fill-rule="evenodd" fill-opacity="1" stroke="#000000" stroke-opacity="1" stroke-width="3.84"/>
<circle clip-path="url(#clip622)" cx="736.879" cy="1641.78" r="14.4" fill="#e26f46" fill-rule="evenodd" fill-opacity="1" stroke="#000000" stroke-opacity="1" stroke-width="3.84"/>
<circle clip-path="url(#clip622)" cx="1898.17" cy="1270.09" r="14.4" fill="#e26f46" fill-rule="evenodd" fill-opacity="1" stroke="#000000" stroke-opacity="1" stroke-width="3.84"/>
<circle clip-path="url(#clip622)" cx="643.507" cy="1580.52" r="14.4" fill="#e26f46" fill-rule="evenodd" fill-opacity="1" stroke="#000000" stroke-opacity="1" stroke-width="3.84"/>
<circle clip-path="url(#clip622)" cx="778.165" cy="1664.54" r="14.4" fill="#e26f46" fill-rule="evenodd" fill-opacity="1" stroke="#000000" stroke-opacity="1" stroke-width="3.84"/>
<circle clip-path="url(#clip622)" cx="719.75" cy="1631.56" r="14.4" fill="#e26f46" fill-rule="evenodd" fill-opacity="1" stroke="#000000" stroke-opacity="1" stroke-width="3.84"/>
<circle clip-path="url(#clip622)" cx="1709.06" cy="1473.66" r="14.4" fill="#e26f46" fill-rule="evenodd" fill-opacity="1" stroke="#000000" stroke-opacity="1" stroke-width="3.84"/>
<circle clip-path="url(#clip622)" cx="1386.96" cy="1692.26" r="14.4" fill="#e26f46" fill-rule="evenodd" fill-opacity="1" stroke="#000000" stroke-opacity="1" stroke-width="3.84"/>
<circle clip-path="url(#clip622)" cx="1406.49" cy="1683.6" r="14.4" fill="#e26f46" fill-rule="evenodd" fill-opacity="1" stroke="#000000" stroke-opacity="1" stroke-width="3.84"/>
<circle clip-path="url(#clip622)" cx="1106.01" cy="1751.13" r="14.4" fill="#e26f46" fill-rule="evenodd" fill-opacity="1" stroke="#000000" stroke-opacity="1" stroke-width="3.84"/>
<circle clip-path="url(#clip622)" cx="709.637" cy="1625.31" r="14.4" fill="#e26f46" fill-rule="evenodd" fill-opacity="1" stroke="#000000" stroke-opacity="1" stroke-width="3.84"/>
<circle clip-path="url(#clip622)" cx="691.548" cy="1613.73" r="14.4" fill="#e26f46" fill-rule="evenodd" fill-opacity="1" stroke="#000000" stroke-opacity="1" stroke-width="3.84"/>
<circle clip-path="url(#clip622)" cx="518.66" cy="1477.42" r="14.4" fill="#e26f46" fill-rule="evenodd" fill-opacity="1" stroke="#000000" stroke-opacity="1" stroke-width="3.84"/>
<circle clip-path="url(#clip622)" cx="1422.91" cy="1675.86" r="14.4" fill="#e26f46" fill-rule="evenodd" fill-opacity="1" stroke="#000000" stroke-opacity="1" stroke-width="3.84"/>
<circle clip-path="url(#clip622)" cx="1461.72" cy="1655.91" r="14.4" fill="#e26f46" fill-rule="evenodd" fill-opacity="1" stroke="#000000" stroke-opacity="1" stroke-width="3.84"/>
<circle clip-path="url(#clip622)" cx="810.174" cy="1680.36" r="14.4" fill="#e26f46" fill-rule="evenodd" fill-opacity="1" stroke="#000000" stroke-opacity="1" stroke-width="3.84"/>
<circle clip-path="url(#clip622)" cx="1493.34" cy="1637.91" r="14.4" fill="#e26f46" fill-rule="evenodd" fill-opacity="1" stroke="#000000" stroke-opacity="1" stroke-width="3.84"/>
<circle clip-path="url(#clip622)" cx="710.718" cy="1625.98" r="14.4" fill="#e26f46" fill-rule="evenodd" fill-opacity="1" stroke="#000000" stroke-opacity="1" stroke-width="3.84"/>
<circle clip-path="url(#clip622)" cx="619.335" cy="1562.45" r="14.4" fill="#e26f46" fill-rule="evenodd" fill-opacity="1" stroke="#000000" stroke-opacity="1" stroke-width="3.84"/>
<circle clip-path="url(#clip622)" cx="1034.23" cy="1746.47" r="14.4" fill="#e26f46" fill-rule="evenodd" fill-opacity="1" stroke="#000000" stroke-opacity="1" stroke-width="3.84"/>
<circle clip-path="url(#clip622)" cx="1014.26" cy="1743.75" r="14.4" fill="#e26f46" fill-rule="evenodd" fill-opacity="1" stroke="#000000" stroke-opacity="1" stroke-width="3.84"/>
<circle clip-path="url(#clip622)" cx="812.64" cy="1681.51" r="14.4" fill="#e26f46" fill-rule="evenodd" fill-opacity="1" stroke="#000000" stroke-opacity="1" stroke-width="3.84"/>
<circle clip-path="url(#clip622)" cx="1018.64" cy="1744.4" r="14.4" fill="#e26f46" fill-rule="evenodd" fill-opacity="1" stroke="#000000" stroke-opacity="1" stroke-width="3.84"/>
<circle clip-path="url(#clip622)" cx="1751.72" cy="1432.59" r="14.4" fill="#e26f46" fill-rule="evenodd" fill-opacity="1" stroke="#000000" stroke-opacity="1" stroke-width="3.84"/>
<circle clip-path="url(#clip622)" cx="904.469" cy="1717.7" r="14.4" fill="#e26f46" fill-rule="evenodd" fill-opacity="1" stroke="#000000" stroke-opacity="1" stroke-width="3.84"/>
<circle clip-path="url(#clip622)" cx="1506.09" cy="1630.22" r="14.4" fill="#e26f46" fill-rule="evenodd" fill-opacity="1" stroke="#000000" stroke-opacity="1" stroke-width="3.84"/>
<circle clip-path="url(#clip622)" cx="2239.66" cy="761.547" r="14.4" fill="#e26f46" fill-rule="evenodd" fill-opacity="1" stroke="#000000" stroke-opacity="1" stroke-width="3.84"/>
<circle clip-path="url(#clip622)" cx="987.322" cy="1739.09" r="14.4" fill="#e26f46" fill-rule="evenodd" fill-opacity="1" stroke="#000000" stroke-opacity="1" stroke-width="3.84"/>
<circle clip-path="url(#clip622)" cx="820.311" cy="1685.04" r="14.4" fill="#e26f46" fill-rule="evenodd" fill-opacity="1" stroke="#000000" stroke-opacity="1" stroke-width="3.84"/>
<circle clip-path="url(#clip622)" cx="1537.45" cy="1610.22" r="14.4" fill="#e26f46" fill-rule="evenodd" fill-opacity="1" stroke="#000000" stroke-opacity="1" stroke-width="3.84"/>
<circle clip-path="url(#clip622)" cx="477.046" cy="1437.67" r="14.4" fill="#e26f46" fill-rule="evenodd" fill-opacity="1" stroke="#000000" stroke-opacity="1" stroke-width="3.84"/>
<circle clip-path="url(#clip622)" cx="1385.2" cy="1693.01" r="14.4" fill="#e26f46" fill-rule="evenodd" fill-opacity="1" stroke="#000000" stroke-opacity="1" stroke-width="3.84"/>
<circle clip-path="url(#clip622)" cx="1185.82" cy="1746.89" r="14.4" fill="#e26f46" fill-rule="evenodd" fill-opacity="1" stroke="#000000" stroke-opacity="1" stroke-width="3.84"/>
<circle clip-path="url(#clip622)" cx="1243.42" cy="1737.68" r="14.4" fill="#e26f46" fill-rule="evenodd" fill-opacity="1" stroke="#000000" stroke-opacity="1" stroke-width="3.84"/>
<circle clip-path="url(#clip622)" cx="1378.68" cy="1695.75" r="14.4" fill="#e26f46" fill-rule="evenodd" fill-opacity="1" stroke="#000000" stroke-opacity="1" stroke-width="3.84"/>
<circle clip-path="url(#clip622)" cx="945.833" cy="1729.71" r="14.4" fill="#e26f46" fill-rule="evenodd" fill-opacity="1" stroke="#000000" stroke-opacity="1" stroke-width="3.84"/>
<circle clip-path="url(#clip622)" cx="1024.14" cy="1745.17" r="14.4" fill="#e26f46" fill-rule="evenodd" fill-opacity="1" stroke="#000000" stroke-opacity="1" stroke-width="3.84"/>
<circle clip-path="url(#clip622)" cx="1229.27" cy="1740.42" r="14.4" fill="#e26f46" fill-rule="evenodd" fill-opacity="1" stroke="#000000" stroke-opacity="1" stroke-width="3.84"/>
<circle clip-path="url(#clip622)" cx="1113.69" cy="1751.15" r="14.4" fill="#e26f46" fill-rule="evenodd" fill-opacity="1" stroke="#000000" stroke-opacity="1" stroke-width="3.84"/>
<circle clip-path="url(#clip622)" cx="657.679" cy="1590.69" r="14.4" fill="#e26f46" fill-rule="evenodd" fill-opacity="1" stroke="#000000" stroke-opacity="1" stroke-width="3.84"/>
<circle clip-path="url(#clip622)" cx="1015.36" cy="1743.91" r="14.4" fill="#e26f46" fill-rule="evenodd" fill-opacity="1" stroke="#000000" stroke-opacity="1" stroke-width="3.84"/>
<circle clip-path="url(#clip622)" cx="1085" cy="1750.59" r="14.4" fill="#e26f46" fill-rule="evenodd" fill-opacity="1" stroke="#000000" stroke-opacity="1" stroke-width="3.84"/>
<circle clip-path="url(#clip622)" cx="1112.55" cy="1751.15" r="14.4" fill="#e26f46" fill-rule="evenodd" fill-opacity="1" stroke="#000000" stroke-opacity="1" stroke-width="3.84"/>
<circle clip-path="url(#clip622)" cx="1252.23" cy="1735.81" r="14.4" fill="#e26f46" fill-rule="evenodd" fill-opacity="1" stroke="#000000" stroke-opacity="1" stroke-width="3.84"/>
<circle clip-path="url(#clip622)" cx="1733.07" cy="1450.89" r="14.4" fill="#e26f46" fill-rule="evenodd" fill-opacity="1" stroke="#000000" stroke-opacity="1" stroke-width="3.84"/>
<circle clip-path="url(#clip622)" cx="981.223" cy="1737.88" r="14.4" fill="#e26f46" fill-rule="evenodd" fill-opacity="1" stroke="#000000" stroke-opacity="1" stroke-width="3.84"/>
<circle clip-path="url(#clip622)" cx="731.009" cy="1638.33" r="14.4" fill="#e26f46" fill-rule="evenodd" fill-opacity="1" stroke="#000000" stroke-opacity="1" stroke-width="3.84"/>
<circle clip-path="url(#clip622)" cx="1359.72" cy="1703.34" r="14.4" fill="#e26f46" fill-rule="evenodd" fill-opacity="1" stroke="#000000" stroke-opacity="1" stroke-width="3.84"/>
<circle clip-path="url(#clip622)" cx="1196.37" cy="1745.59" r="14.4" fill="#e26f46" fill-rule="evenodd" fill-opacity="1" stroke="#000000" stroke-opacity="1" stroke-width="3.84"/>
<circle clip-path="url(#clip622)" cx="575.574" cy="1527.43" r="14.4" fill="#e26f46" fill-rule="evenodd" fill-opacity="1" stroke="#000000" stroke-opacity="1" stroke-width="3.84"/>
<circle clip-path="url(#clip622)" cx="904.033" cy="1717.56" r="14.4" fill="#e26f46" fill-rule="evenodd" fill-opacity="1" stroke="#000000" stroke-opacity="1" stroke-width="3.84"/>
<circle clip-path="url(#clip622)" cx="1114.72" cy="1751.14" r="14.4" fill="#e26f46" fill-rule="evenodd" fill-opacity="1" stroke="#000000" stroke-opacity="1" stroke-width="3.84"/>
<circle clip-path="url(#clip622)" cx="909.917" cy="1719.43" r="14.4" fill="#e26f46" fill-rule="evenodd" fill-opacity="1" stroke="#000000" stroke-opacity="1" stroke-width="3.84"/>
<circle clip-path="url(#clip622)" cx="1382.01" cy="1694.36" r="14.4" fill="#e26f46" fill-rule="evenodd" fill-opacity="1" stroke="#000000" stroke-opacity="1" stroke-width="3.84"/>
<circle clip-path="url(#clip622)" cx="755.204" cy="1652.21" r="14.4" fill="#e26f46" fill-rule="evenodd" fill-opacity="1" stroke="#000000" stroke-opacity="1" stroke-width="3.84"/>
<circle clip-path="url(#clip622)" cx="1390.74" cy="1690.63" r="14.4" fill="#e26f46" fill-rule="evenodd" fill-opacity="1" stroke="#000000" stroke-opacity="1" stroke-width="3.84"/>
<circle clip-path="url(#clip622)" cx="1040.67" cy="1747.21" r="14.4" fill="#e26f46" fill-rule="evenodd" fill-opacity="1" stroke="#000000" stroke-opacity="1" stroke-width="3.84"/>
<circle clip-path="url(#clip622)" cx="1844.16" cy="1333.9" r="14.4" fill="#e26f46" fill-rule="evenodd" fill-opacity="1" stroke="#000000" stroke-opacity="1" stroke-width="3.84"/>
<circle clip-path="url(#clip622)" cx="1403.44" cy="1684.99" r="14.4" fill="#e26f46" fill-rule="evenodd" fill-opacity="1" stroke="#000000" stroke-opacity="1" stroke-width="3.84"/>
<circle clip-path="url(#clip622)" cx="635.735" cy="1574.81" r="14.4" fill="#e26f46" fill-rule="evenodd" fill-opacity="1" stroke="#000000" stroke-opacity="1" stroke-width="3.84"/>
<circle clip-path="url(#clip622)" cx="1286.2" cy="1727.5" r="14.4" fill="#e26f46" fill-rule="evenodd" fill-opacity="1" stroke="#000000" stroke-opacity="1" stroke-width="3.84"/>
<circle clip-path="url(#clip622)" cx="770.393" cy="1660.46" r="14.4" fill="#e26f46" fill-rule="evenodd" fill-opacity="1" stroke="#000000" stroke-opacity="1" stroke-width="3.84"/>
<circle clip-path="url(#clip622)" cx="1169.58" cy="1748.56" r="14.4" fill="#e26f46" fill-rule="evenodd" fill-opacity="1" stroke="#000000" stroke-opacity="1" stroke-width="3.84"/>
<circle clip-path="url(#clip622)" cx="892.935" cy="1713.88" r="14.4" fill="#e26f46" fill-rule="evenodd" fill-opacity="1" stroke="#000000" stroke-opacity="1" stroke-width="3.84"/>
<circle clip-path="url(#clip622)" cx="886.955" cy="1711.81" r="14.4" fill="#e26f46" fill-rule="evenodd" fill-opacity="1" stroke="#000000" stroke-opacity="1" stroke-width="3.84"/>
<circle clip-path="url(#clip622)" cx="847.387" cy="1696.75" r="14.4" fill="#e26f46" fill-rule="evenodd" fill-opacity="1" stroke="#000000" stroke-opacity="1" stroke-width="3.84"/>
<circle clip-path="url(#clip622)" cx="599.249" cy="1546.75" r="14.4" fill="#e26f46" fill-rule="evenodd" fill-opacity="1" stroke="#000000" stroke-opacity="1" stroke-width="3.84"/>
<circle clip-path="url(#clip622)" cx="1395.69" cy="1688.46" r="14.4" fill="#e26f46" fill-rule="evenodd" fill-opacity="1" stroke="#000000" stroke-opacity="1" stroke-width="3.84"/>
<circle clip-path="url(#clip622)" cx="510.78" cy="1470.1" r="14.4" fill="#e26f46" fill-rule="evenodd" fill-opacity="1" stroke="#000000" stroke-opacity="1" stroke-width="3.84"/>
<circle clip-path="url(#clip622)" cx="652.011" cy="1586.66" r="14.4" fill="#e26f46" fill-rule="evenodd" fill-opacity="1" stroke="#000000" stroke-opacity="1" stroke-width="3.84"/>
<circle clip-path="url(#clip622)" cx="680.145" cy="1606.17" r="14.4" fill="#e26f46" fill-rule="evenodd" fill-opacity="1" stroke="#000000" stroke-opacity="1" stroke-width="3.84"/>
<circle clip-path="url(#clip622)" cx="1366" cy="1700.89" r="14.4" fill="#e26f46" fill-rule="evenodd" fill-opacity="1" stroke="#000000" stroke-opacity="1" stroke-width="3.84"/>
<circle clip-path="url(#clip622)" cx="1068" cy="1749.66" r="14.4" fill="#e26f46" fill-rule="evenodd" fill-opacity="1" stroke="#000000" stroke-opacity="1" stroke-width="3.84"/>
<circle clip-path="url(#clip622)" cx="507.804" cy="1467.31" r="14.4" fill="#e26f46" fill-rule="evenodd" fill-opacity="1" stroke="#000000" stroke-opacity="1" stroke-width="3.84"/>
<circle clip-path="url(#clip622)" cx="212.563" cy="1122.02" r="14.4" fill="#e26f46" fill-rule="evenodd" fill-opacity="1" stroke="#000000" stroke-opacity="1" stroke-width="3.84"/>
<circle clip-path="url(#clip622)" cx="692.095" cy="1614.09" r="14.4" fill="#e26f46" fill-rule="evenodd" fill-opacity="1" stroke="#000000" stroke-opacity="1" stroke-width="3.84"/>
<circle clip-path="url(#clip622)" cx="859.855" cy="1701.76" r="14.4" fill="#e26f46" fill-rule="evenodd" fill-opacity="1" stroke="#000000" stroke-opacity="1" stroke-width="3.84"/>
<circle clip-path="url(#clip622)" cx="1147.24" cy="1750.18" r="14.4" fill="#e26f46" fill-rule="evenodd" fill-opacity="1" stroke="#000000" stroke-opacity="1" stroke-width="3.84"/>
<circle clip-path="url(#clip622)" cx="1422.34" cy="1676.14" r="14.4" fill="#e26f46" fill-rule="evenodd" fill-opacity="1" stroke="#000000" stroke-opacity="1" stroke-width="3.84"/>
<circle clip-path="url(#clip622)" cx="1226.85" cy="1740.86" r="14.4" fill="#e26f46" fill-rule="evenodd" fill-opacity="1" stroke="#000000" stroke-opacity="1" stroke-width="3.84"/>
<circle clip-path="url(#clip622)" cx="855.124" cy="1699.89" r="14.4" fill="#e26f46" fill-rule="evenodd" fill-opacity="1" stroke="#000000" stroke-opacity="1" stroke-width="3.84"/>
<circle clip-path="url(#clip622)" cx="955.156" cy="1732.06" r="14.4" fill="#e26f46" fill-rule="evenodd" fill-opacity="1" stroke="#000000" stroke-opacity="1" stroke-width="3.84"/>
<circle clip-path="url(#clip622)" cx="464.382" cy="1425.03" r="14.4" fill="#e26f46" fill-rule="evenodd" fill-opacity="1" stroke="#000000" stroke-opacity="1" stroke-width="3.84"/>
</svg>
